<svg id="Layer_1" data-name="Layer 1" xmlns="http://www.w3.org/2000/svg" viewBox="0 0 257.46 268.35"><defs><style>.cls-1{fill:#010101;}.cls-2{fill:#fff;}.cls-3{fill:#020202;}.cls-4{fill:#fbfbfb;}</style></defs><title>微信公众号</title><path class="cls-1" d="M269.15,145.4c0,66.94-53.59,124.79-117.8,124.79s-117.8-56.06-117.8-123,52.05-123,116.27-123S269.15,78.46,269.15,145.4Z" transform="translate(-23.13 -11.8)"/><path class="cls-2" d="M263.47,145.5c0,63.23-50.61,117.86-111.26,117.86S40.94,210.42,40.94,147.19,90.11,31,150.76,31,263.47,82.27,263.47,145.5Z" transform="translate(-23.13 -11.8)"/><path class="cls-3" d="M255.22,145.61c0,59-47.25,110-103.87,110S47.47,206.22,47.47,147.19,93.38,38.74,150,38.74,255.22,86.59,255.22,145.61Z" transform="translate(-23.13 -11.8)"/><path class="cls-4" d="M249.17,145.7c0,55.59-44.5,103.63-97.82,103.63S53.53,202.78,53.53,147.19,96.75,45.06,150.08,45.06,249.17,90.12,249.17,145.7Z" transform="translate(-23.13 -11.8)"/><path class="cls-1" d="M59.43,143.33c0-47.38,41.41-91.78,87.37-91.78v91.78" transform="translate(-23.13 -11.8)"/><path class="cls-1" d="M242.93,143.5c.17-47.38-41.08-91.94-87-92.12l-.29,92" transform="translate(-23.13 -11.8)"/><path class="cls-1" d="M59.59,151.93c0,47.38,41.42,91.78,87.38,91.78V151.93" transform="translate(-23.13 -11.8)"/><path class="cls-1" d="M243.1,151.76c.17,47.38-41.09,91.94-87,92.12l-.29-91.95" transform="translate(-23.13 -11.8)"/><path class="cls-1" d="M143.69,25.4l3.13-13.6h8.77l3.26,13.59A66.24,66.24,0,0,0,143.69,25.4Z" transform="translate(-23.13 -11.8)"/><path class="cls-1" d="M121.22,29.39l.52-14,8.61-1.79,5.74,12.67A66.56,66.56,0,0,0,121.22,29.39Z" transform="translate(-23.13 -11.8)"/><path class="cls-1" d="M99.94,37.89,97.83,24.08l8.1-3.51,8,11.26A67,67,0,0,0,99.94,37.89Z" transform="translate(-23.13 -11.8)"/><path class="cls-1" d="M80.66,50.56,76,37.45l7.29-5.09,10,9.4A69.71,69.71,0,0,0,80.66,50.56Z" transform="translate(-23.13 -11.8)"/><path class="cls-1" d="M64.14,66.92,57.1,55l6.2-6.48,11.54,7.19A70.48,70.48,0,0,0,64.14,66.92Z" transform="translate(-23.13 -11.8)"/><path class="cls-1" d="M51,86.33,41.87,76.09l4.86-7.62,12.66,4.7A72,72,0,0,0,51,86.33Z" transform="translate(-23.13 -11.8)"/><path class="cls-1" d="M41.76,108,30.88,99.86l3.34-8.46,13.3,2A73.69,73.69,0,0,0,41.76,108Z" transform="translate(-23.13 -11.8)"/><path class="cls-1" d="M36.77,131.22l-12.2-5.8,1.68-9,13.43-.73A74.44,74.44,0,0,0,36.77,131.22Z" transform="translate(-23.13 -11.8)"/><path class="cls-1" d="M36.22,155l-13-3.2,0-9.15,13-3.45A75.23,75.23,0,0,0,36.22,155Z" transform="translate(-23.13 -11.8)"/><path class="cls-1" d="M40.15,178.38l-13.41-.49-1.75-9,12.14-6A74.76,74.76,0,0,0,40.15,178.38Z" transform="translate(-23.13 -11.8)"/><path class="cls-1" d="M48.39,200.53l-13.24,2.25-3.4-8.43L42.52,186A73.29,73.29,0,0,0,48.39,200.53Z" transform="translate(-23.13 -11.8)"/><path class="cls-1" d="M60.62,220.57l-12.55,4.91-4.92-7.58,9-10.43A72.83,72.83,0,0,0,60.62,220.57Z" transform="translate(-23.13 -11.8)"/><path class="cls-1" d="M76.39,237.73,65,245.11l-6.24-6.43,6.85-12.06A70.62,70.62,0,0,0,76.39,237.73Z" transform="translate(-23.13 -11.8)"/><path class="cls-1" d="M95.06,251.34l-9.79,9.56-7.32-5,4.45-13.23A68.82,68.82,0,0,0,95.06,251.34Z" transform="translate(-23.13 -11.8)"/><path class="cls-1" d="M115.93,260.88l-7.8,11.37L100,268.81l1.88-13.87A67.48,67.48,0,0,0,115.93,260.88Z" transform="translate(-23.13 -11.8)"/><path class="cls-1" d="M138.19,266l-5.52,12.74L124.05,277l-.75-14A66.51,66.51,0,0,0,138.19,266Z" transform="translate(-23.13 -11.8)"/><path class="cls-1" d="M161,266.45l-3,13.63-8.77.07-3.37-13.57A65.92,65.92,0,0,0,161,266.45Z" transform="translate(-23.13 -11.8)"/><path class="cls-1" d="M183.41,262.27l-.41,14-8.59,1.86-5.85-12.62A66.52,66.52,0,0,0,183.41,262.27Z" transform="translate(-23.13 -11.8)"/><path class="cls-1" d="M204.62,253.59l2.22,13.79L198.77,271l-8.1-11.18A68,68,0,0,0,204.62,253.59Z" transform="translate(-23.13 -11.8)"/><path class="cls-1" d="M223.8,240.75l4.76,13.07L221.32,259l-10-9.32A69.18,69.18,0,0,0,223.8,240.75Z" transform="translate(-23.13 -11.8)"/><path class="cls-1" d="M240.19,224.25l7.13,11.84-6.14,6.54-11.6-7.09A70.67,70.67,0,0,0,240.19,224.25Z" transform="translate(-23.13 -11.8)"/><path class="cls-1" d="M253.18,204.72l9.21,10.17-4.8,7.66L244.89,218A73,73,0,0,0,253.18,204.72Z" transform="translate(-23.13 -11.8)"/><path class="cls-1" d="M262.25,182.93,273.19,191l-3.27,8.49L256.6,197.6A74.54,74.54,0,0,0,262.25,182.93Z" transform="translate(-23.13 -11.8)"/><path class="cls-1" d="M267.05,159.71l12.25,5.7-1.61,9-13.42.84A75.24,75.24,0,0,0,267.05,159.71Z" transform="translate(-23.13 -11.8)"/><path class="cls-1" d="M267.4,136l13.08,3.1.11,9.14-13,3.57A75.51,75.51,0,0,0,267.4,136Z" transform="translate(-23.13 -11.8)"/><path class="cls-1" d="M263.29,112.59l13.41.36,1.82,9-12.08,6.15A74,74,0,0,0,263.29,112.59Z" transform="translate(-23.13 -11.8)"/><path class="cls-1" d="M254.88,90.51l13.22-2.37,3.46,8.4L260.86,105A73.42,73.42,0,0,0,254.88,90.51Z" transform="translate(-23.13 -11.8)"/><path class="cls-1" d="M242.48,70.57l12.52-5,5,7.54L251.08,83.6A71.75,71.75,0,0,0,242.48,70.57Z" transform="translate(-23.13 -11.8)"/><path class="cls-1" d="M226.58,53.55l11.34-7.48,6.29,6.38-6.75,12.12A70.75,70.75,0,0,0,226.58,53.55Z" transform="translate(-23.13 -11.8)"/><path class="cls-1" d="M207.8,40.1l9.71-9.64,7.37,5-4.35,13.27A68.42,68.42,0,0,0,207.8,40.1Z" transform="translate(-23.13 -11.8)"/><path class="cls-1" d="M186.85,30.74l7.72-11.44,8.16,3.37L201,36.56A67.39,67.39,0,0,0,186.85,30.74Z" transform="translate(-23.13 -11.8)"/><path class="cls-1" d="M164.56,25.83,170,13l8.63,1.64.86,14A66.71,66.71,0,0,0,164.56,25.83Z" transform="translate(-23.13 -11.8)"/><rect class="cls-4" x="101.79" y="108.52" width="52.65" height="54.88"/><rect x="135.52" y="132.68" width="31.65" height="30.37" transform="translate(-19.65 287.4) rotate(-90)"/></svg>